<svg xmlns="http://www.w3.org/2000/svg" xmlns:xlink="http://www.w3.org/1999/xlink" version="1.1" id="图层_1" x="0px" y="0px" viewBox="0 0 80 32" style="enable-background:new 0 0 80 32;" xml:space="preserve">
<style type="text/css">
	.st0{fill:#FFFFFF;}
	.st1{fill:#008CCE;}
  .st2{fill:#00C8DC;}
</style>
<g>
	<g class="st1">
		<path d="M4.71,26.43c-0.09,0.04-0.08,0.12-0.1,0.19c-0.19,0.65-0.38,1.3-0.57,1.96c-0.14,0.49-0.14,0.49-0.66,0.49    c-0.28,0-0.56,0-0.85,0c-0.24-0.01-0.28-0.05-0.34-0.28c-0.06-0.26-0.11-0.53-0.16-0.79C1.73,26.5,1.42,25,1.12,23.51    c-0.1-0.47-0.06-0.51,0.42-0.52c0.27,0,0.54,0,0.81,0.01c0.19,0.01,0.25,0.05,0.29,0.24c0.08,0.38,0.14,0.75,0.22,1.13    c0.13,0.71,0.26,1.41,0.39,2.12c0,0.02,0.02,0.04,0.03,0.07c0.09,0,0.09-0.08,0.1-0.13c0.23-0.79,0.46-1.57,0.69-2.36    c0.08-0.27,0.16-0.54,0.24-0.81c0.05-0.17,0.15-0.26,0.33-0.26c0.05,0,0.1,0,0.15,0c0.32,0,0.37,0.04,0.46,0.35    C5.48,24.17,5.7,25,5.92,25.83c0.05,0.19,0.11,0.37,0.17,0.55c0.01,0.02,0.03,0.04,0.05,0.04c0.02,0,0.05-0.02,0.06-0.04    c0.03-0.12,0.05-0.25,0.08-0.38c0.14-0.81,0.28-1.62,0.42-2.42c0.1-0.59,0.1-0.59,0.71-0.59c0.22,0,0.44,0,0.65,0    c0.24,0.01,0.29,0.07,0.25,0.32c-0.06,0.35-0.13,0.71-0.2,1.06c-0.27,1.42-0.54,2.85-0.81,4.27c-0.01,0.06-0.03,0.13-0.04,0.19    C7.23,28.97,7.15,29.06,7,29.06c-0.4,0-0.79,0-1.19,0c-0.18,0-0.28-0.11-0.33-0.27c-0.11-0.37-0.22-0.74-0.34-1.1    c-0.12-0.38-0.23-0.76-0.35-1.14C4.78,26.5,4.77,26.45,4.71,26.43z"/>
		<path d="M15.44,27c0-0.13,0-0.25,0-0.38c0-1.04,0-2.08,0-3.11c0-0.48,0.02-0.5,0.49-0.51c0.27,0,0.54-0.01,0.81,0.01    c0.25,0.01,0.31,0.08,0.33,0.33c0.01,0.1,0,0.2,0,0.31c0,1.61,0,3.23,0,4.84c0,0.13,0,0.26-0.02,0.38    c-0.01,0.12-0.08,0.18-0.2,0.2c-0.05,0.01-0.1,0.01-0.15,0.01c-0.38,0-0.77,0-1.15,0c-0.2,0-0.33-0.08-0.43-0.26    c-0.14-0.29-0.3-0.56-0.45-0.85c-0.43-0.83-0.86-1.66-1.29-2.49c-0.04-0.07-0.08-0.13-0.12-0.2c-0.01-0.01-0.03-0.02-0.03-0.02    c-0.02,0.01-0.06,0.02-0.06,0.04c-0.01,0.11-0.02,0.23-0.02,0.34c0,0.92,0,1.84,0,2.77c0,0.1,0,0.21,0,0.31    c-0.02,0.28-0.08,0.34-0.35,0.35c-0.28,0.01-0.56,0-0.85,0c-0.06,0-0.13,0-0.19,0c-0.23-0.02-0.28-0.07-0.3-0.31    c0-0.08,0-0.15,0-0.23c0-1.65,0-3.31,0-4.96c0-0.12,0-0.23,0.01-0.35c0.01-0.11,0.08-0.2,0.19-0.21c0.5-0.04,1-0.03,1.5,0    c0.1,0.01,0.17,0.07,0.21,0.15c0.05,0.09,0.1,0.18,0.15,0.27c0.34,0.67,0.68,1.35,1.02,2.02c0.24,0.48,0.5,0.95,0.75,1.43    c0.02,0.04,0.05,0.08,0.08,0.13C15.39,27.01,15.42,27,15.44,27z"/>
		<path d="M17.83,26.02c0-0.85,0-1.69,0-2.54c0-0.46,0.03-0.48,0.47-0.49c0.27,0,0.54-0.01,0.81,0    c0.3,0.01,0.35,0.06,0.35,0.37c0.01,0.46,0,0.92,0,1.38c0,0.18,0.01,0.36,0.01,0.54c0,0.05,0.08,0.08,0.12,0.04    c0.06-0.06,0.12-0.13,0.18-0.2c0.51-0.63,1.01-1.26,1.51-1.89c0.12-0.15,0.25-0.25,0.45-0.25c0.49,0,0.97,0,1.46,0    c0.05,0,0.1,0.02,0.15,0.04c0.03,0.02,0.06,0.06,0.04,0.1c-0.02,0.05-0.05,0.09-0.08,0.13c-0.67,0.81-1.35,1.61-2.02,2.41    c-0.02,0.02-0.03,0.04-0.05,0.06c-0.16,0.2-0.17,0.24-0.02,0.43c0.56,0.7,1.13,1.39,1.69,2.09c0.17,0.21,0.34,0.42,0.5,0.63    c0.07,0.09,0.03,0.18-0.09,0.18c-0.53,0-1.05,0-1.58,0c-0.16,0-0.26-0.09-0.35-0.21c-0.45-0.56-0.9-1.12-1.35-1.67    c-0.14-0.18-0.29-0.35-0.44-0.53c-0.03-0.04-0.11-0.01-0.12,0.04c-0.01,0.1-0.01,0.2-0.01,0.31c0,0.54,0,1.08,0,1.61    c0,0.43-0.03,0.45-0.46,0.46c-0.29,0-0.59,0-0.88-0.01c-0.21-0.01-0.27-0.07-0.28-0.28c-0.01-0.1,0-0.2,0-0.31    C17.83,27.66,17.83,26.84,17.83,26.02z"/>
		<path d="M62.96,25.88c-0.13,0.09-0.18,0.2-0.23,0.29c-0.11,0.18-0.26,0.23-0.45,0.23c-0.35-0.01-0.69,0-1.04,0    c-0.1,0-0.21,0-0.31,0.01c-0.14,0.02-0.2,0.08-0.22,0.22c-0.01,0.1-0.01,0.2-0.01,0.31c0,0.56,0,1.13,0,1.69    c0,0.41-0.04,0.44-0.44,0.45c-0.27,0-0.54,0.01-0.81,0c-0.35-0.01-0.38-0.05-0.39-0.41c0-0.05,0-0.1,0-0.15c0-1.65,0-3.3,0-4.96    c0-0.12,0-0.23,0.01-0.35c0.01-0.12,0.08-0.18,0.2-0.2C59.42,23,59.56,23,59.7,23c0.22,0,0.44-0.01,0.65,0    c0.29,0.01,0.34,0.06,0.35,0.34c0.01,0.13,0,0.26,0,0.38c0,0.44,0,0.87,0,1.31c0,0.09,0,0.18,0.01,0.27    c0.02,0.16,0.08,0.22,0.25,0.24c0.05,0.01,0.1,0.01,0.15,0.01c0.49,0,0.97,0,1.46,0c0.01,0,0.03,0,0.04,0    c0.33-0.01,0.38-0.06,0.39-0.38c0.01-0.47,0-0.95,0-1.42c0-0.15,0-0.31,0.01-0.46c0.02-0.19,0.08-0.26,0.26-0.27    c0.37-0.01,0.74-0.01,1.11,0c0.16,0,0.22,0.08,0.24,0.25c0.01,0.1,0.01,0.2,0.01,0.31c0,1.65,0,3.3,0,4.96c0,0.1,0,0.21-0.01,0.31    c-0.02,0.17-0.07,0.23-0.24,0.24c-0.27,0.01-0.54,0.01-0.81,0.01c-0.12,0-0.23,0-0.35-0.01c-0.11-0.01-0.19-0.08-0.2-0.2    C63.01,28.74,63,28.61,63,28.48c0-0.73,0-1.46,0-2.19C63,26.16,63.02,26.04,62.96,25.88z"/>
		<path d="M46.76,26.02c0-0.85,0-1.69,0-2.54c0-0.46,0.03-0.48,0.48-0.48c1.36,0,2.72,0,4.08,0    c0.1,0,0.2,0.01,0.31,0.02c0.09,0.01,0.14,0.09,0.11,0.17c-0.07,0.18-0.15,0.35-0.23,0.53c-0.03,0.07-0.11,0.11-0.19,0.12    c-0.11,0.01-0.23,0.01-0.35,0.01c-0.67,0-1.33,0-2,0c-0.56,0-0.56,0-0.56,0.58c0,0.26,0,0.51,0,0.77    c0.01,0.27,0.05,0.32,0.31,0.33c0.12,0.01,0.23,0,0.35,0c0.69,0,1.38,0,2.08,0c0.11,0,0.23,0.01,0.34,0.03    c0.08,0.01,0.13,0.09,0.11,0.17c-0.04,0.19-0.13,0.36-0.23,0.52c-0.04,0.07-0.11,0.11-0.19,0.12c-0.11,0.01-0.23,0.01-0.35,0.01    c-0.65,0-1.31,0-1.96,0c-0.44,0-0.46,0.02-0.46,0.45c0,0.32,0,0.64,0,0.96c0,0.08,0,0.15,0.01,0.23c0.01,0.1,0.07,0.17,0.17,0.17    c0.11,0.01,0.23,0.01,0.35,0.01c0.78,0,1.56,0,2.35,0c0.11,0,0.23,0.01,0.34,0.02c0.08,0.01,0.13,0.09,0.11,0.17    c-0.02,0.09-0.06,0.17-0.08,0.26c-0.09,0.3-0.28,0.42-0.6,0.41c-1.28-0.02-2.56,0-3.85-0.01c-0.4,0-0.44-0.04-0.44-0.44    C46.76,27.76,46.76,26.89,46.76,26.02z"/>
		<path d="M24.3,26.05c0-0.86,0-1.72,0-2.58c0-0.45,0.03-0.48,0.48-0.48c1.36,0,2.72,0,4.07,0c0.1,0,0.2,0.01,0.31,0.02    c0.08,0.01,0.13,0.09,0.1,0.17c-0.06,0.19-0.14,0.36-0.24,0.52c-0.05,0.08-0.13,0.12-0.23,0.13c-0.1,0.01-0.2,0.01-0.31,0.01    c-0.69,0-1.38,0-2.08,0c-0.46,0-0.47,0.02-0.47,0.48c0,0.31,0,0.62,0,0.92c0.01,0.21,0.06,0.27,0.28,0.28c0.17,0.01,0.33,0,0.5,0    c0.67,0,1.33,0,2,0c0.44,0,0.48,0.06,0.31,0.46c-0.03,0.07-0.06,0.14-0.1,0.21c-0.06,0.11-0.15,0.17-0.28,0.18    c-0.1,0-0.2,0.01-0.31,0.01c-0.65,0-1.31,0-1.96,0c-0.43,0-0.45,0.02-0.45,0.46c0,0.31,0,0.61,0,0.92c0,0.05,0,0.1,0,0.15    c0.02,0.22,0.06,0.27,0.27,0.29c0.1,0.01,0.2,0,0.31,0c0.74,0,1.49,0,2.23,0c0.12,0,0.23,0,0.35,0.01    c0.17,0.02,0.22,0.1,0.15,0.27c-0.27,0.62-0.18,0.58-0.82,0.58c-1.18,0-2.36,0-3.54,0c-0.12,0-0.23,0-0.35-0.01    c-0.16-0.02-0.22-0.08-0.23-0.25c-0.01-0.1-0.01-0.2-0.01-0.31C24.3,27.69,24.3,26.87,24.3,26.05z"/>
		<path d="M32.39,27.97c0-0.21-0.01-0.41,0-0.62c0.01-0.21-0.05-0.4-0.15-0.58c-0.49-0.85-0.98-1.71-1.47-2.57    c-0.15-0.27-0.31-0.53-0.46-0.8c-0.04-0.08-0.08-0.16-0.1-0.25c-0.02-0.05,0.01-0.11,0.07-0.12c0.07-0.02,0.15-0.03,0.23-0.03    c0.36,0,0.72,0.01,1.08,0c0.26-0.01,0.43,0.09,0.55,0.33c0.25,0.51,0.5,1.01,0.77,1.51c0.09,0.17,0.13,0.39,0.35,0.48    c0.18-0.11,0.21-0.31,0.3-0.48c0.27-0.51,0.54-1.02,0.79-1.54c0.1-0.21,0.24-0.31,0.48-0.3c0.36,0.01,0.72,0,1.08,0    c0.06,0,0.13,0.01,0.19,0.02c0.1,0.02,0.15,0.1,0.11,0.2c-0.03,0.08-0.07,0.16-0.12,0.24c-0.56,1.01-1.12,2.01-1.69,3.02    c-0.01,0.02-0.02,0.05-0.04,0.07c-0.22,0.33-0.31,0.69-0.28,1.09c0.02,0.31,0.01,0.61,0,0.92c0,0.1-0.01,0.2-0.02,0.31    c-0.01,0.1-0.08,0.16-0.18,0.18c-0.04,0.01-0.08,0.02-0.11,0.02c-0.35,0-0.69,0.01-1.04,0c-0.25-0.01-0.31-0.08-0.32-0.33    C32.38,28.48,32.39,28.22,32.39,27.97C32.39,27.97,32.39,27.97,32.39,27.97z"/>
		<path d="M52.6,25.99c0-0.83,0-1.67,0-2.5c0-0.47,0.02-0.5,0.5-0.5c1.5,0,3,0,4.5,0c0.06,0,0.13,0,0.19,0    c0.23,0.01,0.28,0.08,0.18,0.29c-0.06,0.13-0.13,0.25-0.2,0.37c-0.07,0.12-0.17,0.18-0.31,0.19c-0.1,0-0.21,0-0.31,0    c-0.82,0-1.64,0-2.46,0c-0.44,0-0.46,0.02-0.46,0.45c0,1.15,0,2.31,0,3.46c0,0.43,0.02,0.45,0.46,0.45c1.03,0,2.05,0,3.08,0    c0.12,0,0.23,0,0.35,0.01c0.09,0.01,0.15,0.08,0.12,0.16c-0.06,0.2-0.15,0.38-0.26,0.55c-0.04,0.07-0.11,0.11-0.19,0.11    c-0.11,0.01-0.23,0.02-0.35,0.02c-1.44,0-2.87,0-4.31,0c-0.52,0-0.53-0.01-0.53-0.54C52.6,27.69,52.6,26.84,52.6,25.99z"/>
		<path d="M43.16,23c0.79,0,1.59,0,2.38,0c0.45,0,0.47,0.04,0.29,0.46c0,0.01-0.01,0.02-0.01,0.04    c-0.08,0.27-0.25,0.39-0.54,0.37c-0.23-0.02-0.46,0-0.69,0c-0.09,0-0.18,0-0.27,0c-0.44,0-0.46,0.02-0.47,0.45c0,0.1,0,0.2,0,0.31    c0,1.29,0,2.59,0,3.88c0,0.58,0,0.58-0.57,0.58c-0.27,0-0.54,0-0.81-0.01c-0.17-0.01-0.23-0.07-0.25-0.24    c-0.01-0.11-0.01-0.23-0.01-0.35c0-1.36,0-2.72,0-4.07c0-0.13,0-0.26-0.02-0.38c-0.01-0.08-0.07-0.14-0.15-0.15    c-0.1-0.01-0.2-0.02-0.31-0.02c-0.35,0-0.69,0-1.04,0c-0.09,0-0.18,0-0.27-0.01c-0.14-0.02-0.2-0.08-0.22-0.22    c-0.01-0.13-0.01-0.26,0-0.38c0.01-0.16,0.07-0.22,0.25-0.24C40.59,22.99,40.7,23,40.82,23C41.6,22.99,42.38,23,43.16,23z"/>
		<path d="M10.7,26.03c0,0.85,0,1.69,0,2.54c0,0.48-0.02,0.5-0.49,0.51c-0.27,0-0.54,0-0.81-0.01    c-0.19-0.01-0.25-0.07-0.26-0.26c-0.01-0.09-0.01-0.18-0.01-0.27c0-1.66,0-3.33,0-4.99c0-0.53,0.01-0.54,0.53-0.55    c0.26,0,0.51,0,0.77,0.01c0.19,0.01,0.25,0.07,0.26,0.26c0.01,0.1,0.01,0.2,0.01,0.31C10.7,24.39,10.7,25.21,10.7,26.03z"/>
	</g>
	<g class="st0">
		<path d="M9.77,1.45c2.26,0,4.51,0,6.77,0c0.14,0,0.28,0,0.42,0.02c0.12,0.01,0.18,0.08,0.2,0.2    c0.01,0.08,0.01,0.15,0.01,0.23c0,0.28-0.01,0.56,0,0.85c0.01,0.23-0.06,0.42-0.23,0.59c-0.53,0.54-1.04,1.1-1.56,1.65    c-0.06,0.07-0.12,0.13-0.18,0.2c-0.03,0.04,0,0.11,0.05,0.12c0.1,0.01,0.2,0.01,0.31,0.01c0.64,0,1.28,0,1.92,0    c0.12,0,0.23,0,0.35,0.01c0.16,0.02,0.22,0.09,0.24,0.25c0.01,0.08,0.01,0.15,0.01,0.23c0,1.2,0,2.41,0,3.61    c0,0.23-0.03,0.46-0.08,0.69c-0.19,0.84-0.9,1.43-1.76,1.44c-1.45,0.01-2.9,0-4.35,0c-0.2,0-0.37-0.05-0.54-0.16    c-0.66-0.42-1.32-0.83-1.98-1.25c-0.4-0.26-0.4-0.23-0.75,0c-0.88,0.58-1.82,1.05-2.8,1.43c-0.4,0.15-0.44,0.11-0.54-0.25    c-0.09-0.33-0.21-0.66-0.3-0.99c-0.06-0.23-0.03-0.29,0.2-0.38c0.38-0.16,0.76-0.31,1.13-0.49C6.6,9.29,6.9,9.12,7.2,8.96    C7.31,8.9,7.32,8.83,7.23,8.74c-0.21-0.21-0.43-0.4-0.64-0.61C6.47,8.02,6.35,7.91,6.24,7.79C6.18,7.72,6.22,7.63,6.32,7.62    C6.41,7.62,6.5,7.61,6.58,7.63c0.24,0.04,0.48,0.04,0.73,0.05c0.22,0.01,0.43,0.03,0.65,0.05c0.2,0.01,0.41,0.02,0.61,0.03    c0.21,0.02,0.37-0.06,0.52-0.2c0.38-0.37,0.74-0.75,1.03-1.19c0.05-0.07,0.1-0.15,0.14-0.23c0.03-0.05,0.01-0.11-0.05-0.12    c-0.07-0.01-0.15-0.01-0.23-0.01c-1.44,0-2.87,0-4.31,0c-0.41,0-0.43,0.02-0.51,0.41c-0.28,1.32-0.72,2.59-1.3,3.81    c-0.24,0.51-0.54,0.99-0.85,1.46c-0.05,0.07-0.11,0.14-0.17,0.21c-0.07,0.08-0.15,0.1-0.24,0.03c-0.33-0.28-0.66-0.57-0.99-0.86    C1.55,11,1.53,10.91,1.58,10.82c0.04-0.08,0.09-0.16,0.14-0.23C2.5,9.45,3.01,8.18,3.37,6.85c0.19-0.69,0.34-1.39,0.4-2.11    c0.04-0.48,0.09-0.51,0.57-0.51c2.46,0,4.92,0,7.38,0c0.11,0,0.23,0.01,0.34,0.03c0.08,0.01,0.14,0.07,0.15,0.16    c0.01,0.09,0.02,0.18,0.02,0.27c0,0.31-0.01,0.62,0,0.92c0.01,0.32-0.07,0.61-0.22,0.88c-0.38,0.68-0.82,1.33-1.36,1.9    c-0.31,0.33-0.3,0.34,0.08,0.58c0.34,0.21,0.68,0.42,1.01,0.63c0.17,0.11,0.34,0.17,0.54,0.17c1.23,0,2.46,0,3.69,0    c0.35,0,0.4-0.05,0.41-0.4c0.01-0.63,0-1.26,0-1.88c0-0.04,0-0.08,0-0.12c-0.02-0.2-0.07-0.25-0.26-0.27    c-0.1-0.01-0.2-0.01-0.31-0.01c-0.92,0-1.85,0-2.77,0c-0.1,0-0.21,0-0.31,0c-0.3-0.01-0.35-0.06-0.36-0.37    c-0.01-0.24,0-0.49,0-0.73c-0.01-0.23,0.08-0.42,0.24-0.58c0.54-0.56,1.08-1.13,1.61-1.7c0.07-0.07,0.14-0.15,0.21-0.22    c0.04-0.05,0.1-0.1,0.08-0.17c-0.02-0.07-0.1-0.07-0.16-0.08c-0.13,0-0.26,0-0.38,0c-3.64,0-7.28,0-10.92,0    c-0.14,0-0.28,0-0.42-0.01C2.47,3.21,2.4,3.15,2.39,2.99c-0.01-0.44-0.01-0.87,0-1.31c0-0.14,0.08-0.21,0.22-0.22    C2.74,1.45,2.87,1.45,3,1.45C5.25,1.45,7.51,1.45,9.77,1.45z"/>
		<path d="M71.71,9.14c-1.13,0-2.26,0-3.38,0c-0.12,0-0.23,0-0.35-0.01c-0.21-0.02-0.28-0.08-0.29-0.28    c-0.01-0.4-0.01-0.79,0-1.19c0-0.21,0.07-0.27,0.28-0.28c0.11-0.01,0.23,0,0.35,0c0.96,0,1.92,0,2.88,0    c0.46,0,0.47-0.02,0.48-0.48c0-0.47,0-0.95,0-1.42c0-0.09,0-0.18-0.01-0.27c-0.01-0.12-0.07-0.18-0.2-0.19    C71.35,5,71.24,5,71.12,5c-1.12,0-2.23,0-3.35,0c-0.1,0-0.21,0-0.31,0c-0.27-0.01-0.32-0.06-0.33-0.32    c-0.01-0.38-0.01-0.77,0-1.15c0.01-0.23,0.07-0.29,0.3-0.3c0.11-0.01,0.23,0,0.35,0c1.12,0,2.23,0,3.35,0c0.12,0,0.23,0,0.35-0.01    c0.12-0.01,0.18-0.07,0.19-0.2c0.01-0.14,0.01-0.28,0.01-0.42c0-0.29,0-0.59,0.01-0.88c0.01-0.15,0.07-0.22,0.21-0.23    c0.4-0.01,0.79-0.01,1.19,0c0.14,0,0.2,0.08,0.21,0.23c0.01,0.1,0.01,0.2,0.01,0.31c0,0.29,0,0.59,0,0.88    c0.01,0.27,0.05,0.32,0.31,0.33c0.1,0.01,0.21,0,0.31,0c1.13,0,2.26,0,3.38,0c0.53,0,0.54,0.01,0.54,0.53c0,0.31,0.01,0.62,0,0.92    c-0.01,0.26-0.06,0.3-0.33,0.32c-0.1,0.01-0.21,0-0.31,0c-1.13,0-2.26,0-3.38,0c-0.52,0-0.52,0-0.52,0.51c0,0.46,0,0.92,0,1.38    c0,0.09,0,0.18,0.01,0.27c0.01,0.13,0.07,0.19,0.19,0.2c0.11,0.01,0.23,0.01,0.35,0.01c0.76,0,1.51,0,2.27,0    c0.17,0,0.33,0,0.5,0.05c0.28,0.08,0.48,0.25,0.59,0.51c0.12,0.27,0.17,0.56,0.14,0.86c-0.12,1-0.52,1.87-1.15,2.64    c-0.47,0.59-0.99,1.14-1.49,1.71c-0.09,0.09-0.19,0.17-0.28,0.26c-0.12,0.11-0.25,0.22-0.36,0.34c-0.1,0.1-0.1,0.17,0.01,0.26    c0.04,0.03,0.08,0.06,0.12,0.09c0.79,0.55,1.58,1.09,2.37,1.64c0.43,0.3,0.87,0.6,1.3,0.89c0.06,0.04,0.12,0.09,0.18,0.14    c0.08,0.07,0.1,0.15,0.05,0.24c-0.1,0.18-0.2,0.36-0.3,0.54c-0.12,0.21-0.24,0.42-0.37,0.63c-0.06,0.09-0.14,0.11-0.23,0.06    c-0.08-0.04-0.15-0.09-0.23-0.14c-1.38-0.94-2.75-1.88-4.13-2.82c-0.01-0.01-0.02-0.02-0.03-0.02c-0.25-0.17-0.26-0.17-0.51,0    c-0.88,0.64-1.79,1.24-2.74,1.78c-0.73,0.42-1.5,0.79-2.26,1.15c-0.05,0.02-0.09,0.04-0.14,0.06c-0.08,0.02-0.15,0-0.2-0.08    c-0.01-0.01-0.01-0.02-0.02-0.03c-0.15-0.41-0.31-0.81-0.46-1.22c-0.06-0.17-0.03-0.23,0.13-0.31c0.08-0.04,0.16-0.08,0.24-0.12    c1.28-0.6,2.51-1.29,3.68-2.08c0.11-0.07,0.21-0.15,0.31-0.23c0.1-0.09,0.11-0.18,0.01-0.26c-0.1-0.08-0.2-0.16-0.31-0.23    c-0.8-0.55-1.61-1.1-2.4-1.66c-0.53-0.38-0.52-0.28-0.18-0.86c0.14-0.23,0.27-0.46,0.41-0.69c0.13-0.21,0.2-0.23,0.4-0.1    c0.39,0.27,0.78,0.53,1.17,0.8c0.75,0.52,1.49,1.04,2.24,1.56c0.05,0.04,0.11,0.07,0.16,0.1c0.07,0.04,0.15,0.04,0.21-0.01    c0.07-0.06,0.14-0.12,0.2-0.18c0.47-0.47,0.96-0.93,1.41-1.41c0.51-0.54,0.94-1.15,1.37-1.76c0.03-0.04,0.05-0.09,0.07-0.14    c0.03-0.08-0.01-0.16-0.1-0.17c-0.13-0.01-0.26-0.02-0.38-0.02C73.99,9.14,72.85,9.14,71.71,9.14z"/>
		<path d="M9.94,18.22c-2.75,0-5.51,0-8.26,0c-0.14,0-0.28,0-0.42-0.01c-0.16-0.02-0.22-0.08-0.24-0.25    C1,17.9,1,17.83,1,17.77c0-0.29,0-0.59,0-0.88c0-0.06,0-0.13,0.01-0.19c0.02-0.17,0.08-0.23,0.24-0.24    c0.17-0.01,0.33-0.01,0.5-0.01c0.63,0,0.62,0.03,0.62-0.6c0-0.95,0-1.9,0-2.84c0-0.13,0.01-0.26,0.02-0.38    c0.01-0.08,0.07-0.14,0.15-0.15c0.05-0.01,0.1-0.02,0.15-0.02c0.12,0,0.23,0,0.35,0c4.64,0,9.28,0,13.91,0    c0.15,0,0.31,0,0.46,0.01c0.12,0.01,0.18,0.08,0.2,0.2c0.01,0.11,0.01,0.23,0.01,0.35c0,0.91,0,1.82,0,2.73    c0,0.77-0.06,0.71,0.7,0.72c0.12,0,0.23,0,0.35,0.01c0.16,0.01,0.22,0.07,0.24,0.24c0.01,0.06,0.01,0.13,0.01,0.19    c0,0.29,0,0.59,0,0.88c0,0.06,0,0.13-0.01,0.19c-0.02,0.16-0.08,0.23-0.24,0.25c-0.14,0.01-0.28,0.01-0.42,0.01    C15.47,18.22,12.71,18.22,9.94,18.22z M10.03,16.44c0.28,0,0.56,0,0.85,0c0.14,0,0.28,0,0.42-0.01c0.15-0.01,0.21-0.07,0.23-0.21    c0.01-0.04,0.01-0.08,0.01-0.11c0-0.54,0-1.08,0-1.61c0-0.27-0.05-0.31-0.31-0.33c-0.04,0-0.08,0-0.12,0c-0.7,0-1.41,0-2.11,0    c-0.08,0-0.15,0-0.23,0.01c-0.14,0.02-0.2,0.07-0.21,0.23c-0.01,0.06-0.01,0.13-0.01,0.19c0,0.47,0,0.95,0,1.42    c0,0.08,0,0.15,0.01,0.23c0.01,0.1,0.07,0.17,0.17,0.18c0.09,0.01,0.18,0.01,0.27,0.02C9.33,16.44,9.68,16.44,10.03,16.44z     M5.43,16.44c0.12,0,0.23,0,0.35,0c0.27,0,0.54,0,0.81,0c0.25-0.01,0.3-0.07,0.32-0.33c0-0.04,0-0.08,0-0.12c0-0.46,0-0.92,0-1.38    c0-0.4-0.04-0.44-0.44-0.44c-0.68,0-1.36,0-2.03,0c-0.04,0-0.08,0-0.12,0c-0.25,0.01-0.29,0.06-0.31,0.29c0,0.03,0,0.05,0,0.08    c0,0.51,0,1.02,0,1.54c0,0.01,0,0.03,0,0.04c0.01,0.27,0.05,0.31,0.31,0.33c0.06,0,0.13,0,0.19,0    C4.81,16.44,5.12,16.44,5.43,16.44z M14.56,16.44c0.31,0,0.61,0,0.92,0c0.09,0,0.18,0,0.27-0.01c0.17-0.02,0.22-0.07,0.24-0.24    c0.01-0.05,0.01-0.1,0.01-0.15c0-0.5,0-1,0-1.49c0-0.05,0-0.1-0.01-0.15c-0.02-0.14-0.07-0.2-0.22-0.22    c-0.05-0.01-0.1-0.01-0.15-0.01c-0.68,0-1.35,0-2.03,0c-0.08,0-0.15,0.01-0.23,0.02c-0.1,0.02-0.16,0.08-0.17,0.18    c-0.01,0.05-0.01,0.1-0.01,0.15c0,0.54,0,1.07,0,1.61c0,0.04,0,0.08,0.01,0.11c0.02,0.12,0.07,0.18,0.2,0.19    c0.09,0.01,0.18,0.01,0.27,0.01C13.95,16.44,14.26,16.44,14.56,16.44z"/>
		<path d="M29.44,5.98c1.69,0,3.38,0,5.08,0c0.13,0,0.26,0.01,0.38,0.02c0.08,0.01,0.14,0.07,0.16,0.15    c0.01,0.05,0.02,0.1,0.02,0.15c0,0.38,0.01,0.77,0,1.15c-0.01,0.23-0.07,0.29-0.31,0.3c-0.11,0.01-0.23,0-0.35,0    c-1.19,0-2.38,0-3.58,0c-0.53,0-0.54,0.01-0.54,0.53c0,0.37,0,0.74,0,1.11c0,0.09,0,0.18,0.01,0.27c0.02,0.14,0.08,0.2,0.23,0.21    C30.67,9.9,30.8,9.9,30.93,9.9c2.08,0,4.15,0,6.23,0c0.13,0,0.26,0,0.38,0.01c0.14,0.01,0.2,0.08,0.22,0.22    c0.01,0.05,0.01,0.1,0.01,0.15c0,0.33,0,0.67,0,1c0,0.06-0.01,0.13-0.02,0.19c-0.02,0.1-0.08,0.17-0.18,0.18    c-0.15,0.02-0.31,0.03-0.46,0.03c-2.06,0-4.13,0-6.19,0c-0.13,0-0.26,0-0.38,0.01c-0.14,0.01-0.21,0.08-0.22,0.22    c-0.01,0.13-0.01,0.26-0.01,0.38c0,1.27,0,2.54,0,3.81c0,0.26-0.03,0.51-0.1,0.76c-0.23,0.8-0.89,1.33-1.71,1.36    c-0.51,0.02-1.03,0-1.54,0c-0.05,0-0.1-0.01-0.15-0.02c-0.1-0.02-0.16-0.08-0.17-0.18c-0.01-0.05-0.01-0.1-0.01-0.15    c0-0.36,0-0.72,0-1.08c0-0.06,0.01-0.13,0.02-0.19c0.02-0.08,0.08-0.14,0.16-0.15c0.1-0.01,0.2-0.02,0.31-0.02    c0.35,0,0.69,0,1.04,0c0.09,0,0.18,0,0.27-0.01c0.14-0.02,0.21-0.08,0.24-0.21c0.02-0.1,0.02-0.2,0.02-0.31c0-1.28,0-2.56,0-3.84    c0-0.04,0-0.08,0-0.12c-0.01-0.27-0.05-0.3-0.33-0.29c-0.14,0-0.28,0.01-0.42,0.01c-2.27,0-4.54,0-6.81,0    c-0.13,0-0.26,0-0.38-0.01c-0.19-0.02-0.25-0.08-0.27-0.27c-0.01-0.11-0.01-0.23-0.01-0.35c0-0.29,0-0.59,0.01-0.88    c0.01-0.19,0.07-0.25,0.26-0.26c0.13-0.01,0.26-0.01,0.38-0.01c2.28,0,4.56,0,6.84,0c0.12,0,0.23,0,0.35,0    c0.31-0.01,0.36-0.06,0.37-0.35c0-0.05,0-0.1,0-0.15c0-0.38,0-0.77,0-1.15c0-0.09,0-0.18-0.01-0.27c-0.01-0.12-0.08-0.18-0.2-0.19    c-0.11-0.01-0.23-0.01-0.35-0.01c-1.24,0-2.49,0-3.73,0c-0.13,0-0.26,0-0.38-0.01c-0.17-0.02-0.23-0.08-0.24-0.24    c-0.01-0.08-0.01-0.15-0.01-0.23c0-0.31,0-0.62,0-0.92C23.76,6.04,23.8,6,24.14,5.99c0.1,0,0.21,0,0.31,0    C26.11,5.98,27.78,5.98,29.44,5.98z"/>
		<path d="M43.22,7.61c-0.14,0.13-0.12,0.28-0.13,0.41C43.04,8.58,43,9.14,42.95,9.71c-0.05,0.6-0.11,1.2-0.18,1.8    c-0.05,0.46-0.11,0.92-0.17,1.37c-0.14,0.98-0.28,1.95-0.44,2.93c-0.12,0.71-0.26,1.41-0.4,2.12c-0.08,0.39-0.13,0.42-0.52,0.33    c-0.27-0.07-0.55-0.13-0.82-0.21c-0.3-0.08-0.32-0.12-0.27-0.44c0.01-0.05,0.02-0.1,0.03-0.15c0.26-1.31,0.48-2.62,0.66-3.94    c0.12-0.95,0.25-1.9,0.36-2.86c0.08-0.67,0.12-1.35,0.18-2.03c0.01-0.11,0.03-0.23,0.04-0.34c0.01-0.15,0.03-0.31,0.03-0.46    c0-0.3-0.04-0.35-0.36-0.36c-0.18-0.01-0.36,0-0.54-0.01c-0.14-0.01-0.2-0.08-0.23-0.22c0-0.03-0.01-0.05-0.01-0.08    c0-0.4-0.01-0.79,0-1.19c0.01-0.21,0.07-0.26,0.29-0.28c0.1-0.01,0.21,0,0.31,0c0.59,0,1.18,0,1.77,0c0.1,0,0.21,0,0.31-0.01    c0.16-0.01,0.22-0.07,0.24-0.24c0-0.03,0-0.05,0-0.08c0-0.42,0-0.85,0-1.27c0-0.04,0-0.08-0.01-0.11    c-0.02-0.12-0.08-0.18-0.21-0.19c-0.1-0.01-0.2-0.01-0.31-0.01c-0.54,0-1.08,0-1.62,0c-0.45,0-0.48-0.03-0.48-0.48    c0-0.28,0-0.56,0-0.85c0-0.09,0-0.18,0.02-0.27c0.02-0.1,0.08-0.16,0.18-0.17c0.11-0.01,0.23-0.01,0.35-0.01    c0.83,0,1.67-0.01,2.5,0c0.88,0.02,1.74-0.09,2.59-0.27C46.5,1.66,46.75,1.6,47,1.55c0.21-0.04,0.29,0,0.34,0.2    c0.1,0.4,0.18,0.8,0.26,1.2c0.03,0.16-0.02,0.23-0.18,0.29c-0.17,0.05-0.34,0.1-0.52,0.13c-0.47,0.09-0.93,0.17-1.4,0.25    c-0.14,0.02-0.28,0.05-0.42,0.08C45,3.73,44.95,3.79,44.93,3.87C44.92,3.93,44.92,4,44.92,4.06c0,0.41,0,0.82,0,1.23    c0,0.06,0.01,0.13,0.01,0.19c0.01,0.1,0.07,0.17,0.17,0.18c0.11,0.01,0.23,0.02,0.35,0.02c0.62,0,1.23,0,1.85,0    c0.46,0,0.48,0.03,0.48,0.47c0,0.33,0,0.67,0,1c-0.01,0.23-0.07,0.29-0.31,0.3c-0.1,0.01-0.21,0-0.31,0c-0.58,0-1.15,0-1.73,0    c-0.1,0-0.21,0-0.31,0.01c-0.12,0.01-0.18,0.08-0.2,0.2c-0.01,0.1-0.01,0.2-0.01,0.31c0,0.42,0,0.85,0,1.27c0,2.83,0,5.67,0,8.5    c0,0.14,0,0.28-0.01,0.42c-0.01,0.14-0.08,0.19-0.23,0.21c-0.03,0-0.05,0.01-0.08,0.01c-0.35,0-0.69,0.01-1.04,0    c-0.26-0.01-0.31-0.06-0.32-0.32c-0.01-0.13,0-0.26,0-0.38c0-3.22,0-6.43,0-9.65C43.23,7.88,43.22,7.75,43.22,7.61z"/>
		<path d="M62.92,14.95c0-0.35,0-0.69,0-1.04c0-0.09,0-0.18-0.01-0.27c-0.01-0.07-0.06-0.12-0.14-0.1    c-0.09,0.02-0.17,0.05-0.25,0.08c-0.44,0.18-0.88,0.36-1.32,0.54c-0.43,0.17-0.46,0.16-0.61-0.26c-0.11-0.31-0.22-0.63-0.32-0.95    c-0.06-0.21-0.03-0.28,0.16-0.36c0.36-0.16,0.73-0.31,1.1-0.46c0.37-0.15,0.73-0.31,1.1-0.45c0.19-0.08,0.29-0.2,0.28-0.41    c-0.01-0.06,0-0.13,0-0.19c0-1.69,0-3.38,0-5.08c0-0.54,0-0.54-0.53-0.54c-0.46,0-0.92,0-1.38,0c-0.36,0-0.4-0.05-0.4-0.4    c-0.01-0.33,0-0.67,0-1c0-0.06,0.01-0.13,0.02-0.19c0.02-0.1,0.08-0.16,0.18-0.17c0.1-0.01,0.2-0.02,0.31-0.02    c0.35,0,0.69,0,1.04,0c0.1,0,0.21,0,0.31,0c0.45,0,0.47-0.02,0.47-0.49c0-0.4,0-0.79,0-1.19c0-0.53,0.01-0.54,0.53-0.54    c0.23,0,0.46,0,0.69,0c0.36,0.01,0.4,0.05,0.41,0.4c0.01,0.45,0,0.9,0,1.35c0,0.1,0,0.21,0.02,0.31c0.01,0.08,0.07,0.14,0.15,0.15    c0.1,0.01,0.2,0.02,0.31,0.02c0.36,0,0.72,0,1.08,0c0.1,0,0.21,0,0.31,0.01c0.14,0.02,0.21,0.08,0.21,0.23    c0.01,0.44,0.01,0.87,0,1.31c0,0.14-0.07,0.2-0.22,0.22c-0.09,0.01-0.18,0.01-0.27,0.01c-0.35,0-0.69,0-1.04,0    c-0.09,0-0.18,0-0.27,0c-0.2,0.01-0.25,0.06-0.27,0.25c-0.01,0.09-0.01,0.18-0.01,0.27c0,1.45,0,2.9,0,4.34    c0,0.1,0,0.21,0.01,0.31c0.01,0.13,0.09,0.19,0.21,0.15c0.11-0.03,0.22-0.08,0.32-0.12c0.32-0.13,0.64-0.27,0.96-0.4    c0.07-0.03,0.14-0.06,0.22-0.08c0.09-0.02,0.15,0.01,0.19,0.09c0.02,0.03,0.03,0.07,0.05,0.11c0.13,0.36,0.26,0.72,0.38,1.09    c0.09,0.27,0.08,0.3-0.17,0.41c-0.26,0.11-0.52,0.22-0.78,0.33c-0.34,0.14-0.68,0.29-1.03,0.42c-0.25,0.09-0.37,0.24-0.35,0.51    c0.02,0.24,0,0.49,0,0.73c0,0.85-0.01,1.69,0,2.54c0,0.47-0.15,0.88-0.44,1.24c-0.33,0.4-0.75,0.63-1.26,0.65    c-0.64,0.02-1.28,0.01-1.92,0.01c-0.04,0-0.08,0-0.11-0.01c-0.12-0.02-0.18-0.08-0.2-0.2c-0.01-0.05-0.01-0.1-0.01-0.15    c0-0.35-0.01-0.69,0-1.04c0.01-0.32,0.05-0.37,0.39-0.38c0.09,0,0.18,0,0.27,0c0.37,0,0.74,0,1.12,0c0.1,0,0.21,0,0.31-0.01    c0.14-0.02,0.21-0.09,0.22-0.22c0.01-0.1,0.01-0.2,0.01-0.31C62.92,15.64,62.92,15.29,62.92,14.95    C62.92,14.95,62.92,14.95,62.92,14.95z"/>
		<path d="M55.54,7.15c0,1.64,0,3.28,0,4.92c0,0.6,0.06,0.54,0.54,0.45c0.45-0.08,0.91-0.17,1.36-0.25    c0.08-0.01,0.15-0.03,0.23-0.03c0.09,0,0.15,0.05,0.16,0.13c0.01,0.07,0.02,0.15,0.02,0.23c0,0.41,0,0.82,0,1.23    c0,0.05,0,0.1-0.01,0.15c-0.01,0.13-0.07,0.22-0.2,0.24c-0.23,0.05-0.45,0.1-0.68,0.14c-0.34,0.06-0.68,0.12-1.02,0.18    c-0.05,0.01-0.1,0.02-0.15,0.03c-0.2,0.06-0.23,0.1-0.25,0.29c-0.01,0.1,0,0.2,0,0.31c0,0.86,0,1.72,0,2.58    c0,0.53-0.01,0.54-0.53,0.54c-0.28,0-0.56,0-0.85-0.01c-0.17-0.01-0.23-0.07-0.25-0.24c-0.01-0.11-0.01-0.23-0.01-0.35    c0-0.76,0-1.51,0-2.27c0-0.1,0-0.21-0.01-0.31c-0.01-0.13-0.06-0.18-0.21-0.16c-0.23,0.03-0.46,0.07-0.68,0.11    c-1.13,0.21-2.27,0.42-3.4,0.63c-0.3,0.06-0.6,0.12-0.91,0.17c-0.24,0.04-0.32-0.02-0.33-0.24c-0.01-0.49-0.01-0.97,0-1.46    c0-0.19,0.05-0.24,0.25-0.28c0.38-0.08,0.75-0.15,1.13-0.22c1.23-0.23,2.47-0.46,3.7-0.69c0.04-0.01,0.08-0.01,0.11-0.02    c0.28-0.05,0.32-0.1,0.33-0.38c0.01-0.13,0-0.26,0-0.38c0-3.32,0-6.64,0-9.96c0-0.14,0-0.28,0.01-0.42    c0.01-0.15,0.07-0.22,0.21-0.23c0.4-0.01,0.79-0.01,1.19,0c0.14,0,0.2,0.08,0.21,0.23c0.01,0.13,0.01,0.26,0.01,0.38    C55.54,3.87,55.54,5.51,55.54,7.15z"/>
		<path d="M29.19,1.67c1.83,0,3.66,0,5.5,0c0.59,0,0.52,0,0.78,0.45c0.52,0.9,1.02,1.81,1.53,2.71    c0.28,0.49,0.55,0.98,0.83,1.47c0.04,0.07,0.08,0.13,0.11,0.2c0.06,0.14,0.05,0.21-0.07,0.3c-0.35,0.24-0.7,0.47-1.06,0.7    c-0.13,0.08-0.2,0.06-0.28-0.08c-0.28-0.5-0.56-1.01-0.84-1.51c-0.41-0.73-0.81-1.46-1.22-2.18c-0.04-0.07-0.08-0.13-0.12-0.19    c-0.06-0.08-0.13-0.12-0.23-0.12C34,3.4,33.88,3.4,33.77,3.4c-2.99,0-5.97,0-8.96,0c-0.56,0-0.53-0.01-0.79,0.49    c-0.61,1.17-1.31,2.29-2.1,3.35c-0.08,0.11-0.17,0.22-0.27,0.33c-0.12,0.13-0.19,0.14-0.33,0.01c-0.3-0.28-0.59-0.57-0.88-0.86    c-0.11-0.11-0.11-0.18-0.03-0.31c0.06-0.09,0.12-0.17,0.18-0.25c0.79-1.03,1.48-2.12,2.08-3.27c0.17-0.33,0.31-0.68,0.46-1.01    c0.1-0.21,0.1-0.21,0.35-0.21c0.17,0,0.33,0.01,0.5,0.01C25.73,1.68,27.46,1.67,29.19,1.67C29.19,1.67,29.19,1.67,29.19,1.67z"/>
		<path d="M46.19,8.07c0.19,0,0.38-0.01,0.58,0c0.15,0.01,0.2,0.06,0.23,0.21c0.03,0.14,0.05,0.28,0.06,0.42    c0.06,0.64,0.12,1.27,0.18,1.91c0.06,0.64,0.14,1.27,0.2,1.91c0.03,0.32,0.06,0.64,0.09,0.95c0.07,0.75,0.15,1.5,0.22,2.25    c0.05,0.52,0.11,1.04,0.16,1.57c0.05,0.5,0.01,0.55-0.51,0.55c-0.26,0-0.51,0.01-0.77-0.01c-0.26-0.01-0.31-0.06-0.34-0.32    c-0.05-0.43-0.1-0.86-0.15-1.3c-0.07-0.73-0.14-1.45-0.21-2.18c-0.06-0.62-0.12-1.25-0.18-1.87c-0.04-0.38-0.08-0.76-0.12-1.14    c-0.03-0.31-0.07-0.61-0.1-0.92c-0.05-0.52-0.1-1.04-0.16-1.57c0-0.03,0-0.05-0.01-0.08c-0.02-0.34,0.03-0.4,0.39-0.41    C45.91,8.06,46.05,8.06,46.19,8.07C46.19,8.06,46.19,8.07,46.19,8.07z"/>
		<path d="M25.74,13.07c-0.01,0.04-0.02,0.1-0.05,0.16c-0.12,0.23-0.24,0.45-0.38,0.67c-0.53,0.85-1.13,1.65-1.79,2.4    c-0.25,0.28-0.48,0.56-0.76,0.82c-0.26,0.24-0.53,0.48-0.8,0.72c-0.03,0.03-0.06,0.05-0.09,0.07c-0.11,0.07-0.19,0.06-0.27-0.03    c-0.01-0.01-0.02-0.02-0.02-0.03c-0.24-0.36-0.48-0.72-0.72-1.09c-0.06-0.09-0.05-0.17,0.03-0.24c0.09-0.09,0.19-0.18,0.29-0.26    c0.85-0.69,1.54-1.54,2.18-2.42c0.31-0.42,0.59-0.87,0.85-1.33c0.02-0.04,0.05-0.09,0.08-0.13c0.09-0.13,0.16-0.16,0.29-0.09    c0.36,0.2,0.71,0.41,1.07,0.61C25.68,12.93,25.73,12.97,25.74,13.07z"/>
		<path d="M33.8,12.24c0.08,0.01,0.13,0.04,0.17,0.1c0.16,0.2,0.31,0.41,0.46,0.61c0.78,1.05,1.55,2.1,2.32,3.15    c0.16,0.22,0.32,0.43,0.47,0.66c0.08,0.12,0.07,0.21-0.04,0.31c-0.32,0.28-0.64,0.55-0.96,0.82c-0.08,0.07-0.16,0.06-0.24-0.02    c-0.07-0.08-0.13-0.16-0.19-0.24c-0.94-1.27-1.89-2.55-2.83-3.82c-0.1-0.13-0.2-0.27-0.29-0.41c-0.07-0.11-0.07-0.2,0.03-0.28    c0.33-0.28,0.66-0.56,1-0.84C33.73,12.26,33.77,12.25,33.8,12.24z"/>
		<path d="M53.01,10.09c0,0.24,0.01,0.49,0,0.73c-0.01,0.19-0.08,0.25-0.27,0.24c-0.15-0.01-0.3-0.04-0.46-0.06    c-0.81-0.1-1.63-0.2-2.44-0.29c-0.31-0.04-0.61-0.07-0.92-0.11c-0.23-0.03-0.29-0.09-0.3-0.32c-0.01-0.46-0.01-0.92,0-1.38    c0.01-0.25,0.08-0.31,0.34-0.3c0.28,0.02,0.56,0.06,0.84,0.09c0.83,0.1,1.65,0.2,2.48,0.29c0.17,0.02,0.33,0.04,0.49,0.07    C52.95,9.1,53,9.16,53.01,9.33C53.02,9.58,53.01,9.84,53.01,10.09z"/>
		<path d="M53.01,5.48c0,0.24,0.01,0.49,0,0.73C53,6.36,52.94,6.41,52.79,6.4c-0.38-0.03-0.76-0.07-1.15-0.12    C50.85,6.19,50.07,6.09,49.28,6c-0.15-0.02-0.3-0.05-0.45-0.07c-0.12-0.02-0.18-0.09-0.19-0.21c-0.01-0.05-0.01-0.1-0.01-0.15    c0-0.44,0-0.87,0-1.31c0-0.05,0-0.1,0.01-0.15c0.02-0.12,0.09-0.18,0.22-0.17c0.27,0.02,0.53,0.06,0.8,0.09    c0.56,0.07,1.12,0.13,1.68,0.2c0.44,0.05,0.89,0.11,1.33,0.16c0.03,0,0.05,0.01,0.08,0.01c0.2,0.04,0.26,0.11,0.27,0.31    C53.02,4.96,53.01,5.22,53.01,5.48C53.01,5.48,53.01,5.48,53.01,5.48z"/>
	</g>
	<g class="st2">
		<path d="M73.64,30.38c1.28,0,2.32-0.44,3.19-1.27c0.64-0.62,1.05-1.38,1.23-2.26c0.11-0.52,0.13-1.04,0.04-1.57    c-0.02-0.11-0.03-0.23-0.02-0.34c0.02-0.19,0.16-0.33,0.35-0.36c0.17-0.03,0.35,0.07,0.43,0.25c0.03,0.06,0.04,0.12,0.05,0.18    c0.2,1.09,0.05,2.14-0.41,3.15c-0.38,0.84-0.95,1.52-1.69,2.06c-0.67,0.49-1.42,0.81-2.25,0.94c-1.58,0.25-3-0.14-4.24-1.15    c-0.14-0.11-0.27-0.23-0.41-0.35c-0.18-0.16-0.18-0.16-0.4-0.04c-0.12,0.07-0.24,0.15-0.36,0.22c-0.84,0.55-1.67,1.09-2.51,1.64    c-0.13,0.08-0.26,0.17-0.4,0.23c-0.32,0.13-0.71,0.01-0.88-0.27c-0.2-0.32-0.14-0.74,0.16-0.97c0.21-0.16,0.44-0.3,0.67-0.45    c0.8-0.52,1.59-1.03,2.39-1.55c0.01-0.01,0.02-0.01,0.03-0.02c0.3-0.2,0.29-0.2,0.18-0.53c-0.07-0.2-0.14-0.41-0.21-0.62    c-0.14-0.43-0.18-0.88-0.19-1.33c-0.01-0.45,0.06-0.89,0.17-1.33c0.53-2.08,2.24-3.6,4.28-3.93c0.81-0.13,1.61-0.08,2.39,0.17    c0.33,0.1,0.44,0.2,0.6-0.26c0.02-0.05,0.05-0.09,0.08-0.13c0.03-0.03,0.07-0.03,0.1,0c0.03,0.02,0.06,0.05,0.08,0.09    c0.23,0.38,0.46,0.77,0.69,1.15c0.02,0.03,0.04,0.07,0.05,0.11c0.01,0.05-0.01,0.1-0.06,0.13c-0.03,0.02-0.07,0.03-0.11,0.04    c-0.4,0.1-0.79,0.21-1.19,0.31c-0.06,0.02-0.13,0.02-0.19,0.03c-0.07,0.01-0.12-0.06-0.11-0.13c0.02-0.07,0.05-0.15,0.06-0.22    c0.04-0.14,0-0.21-0.14-0.27c-0.02-0.01-0.05-0.02-0.07-0.03c-0.51-0.16-1.02-0.25-1.55-0.21c-0.5,0.04-0.99,0.12-1.46,0.33    c-1.56,0.68-2.5,1.85-2.73,3.53c-0.2,1.44,0.25,2.67,1.25,3.72C71.36,29.9,72.63,30.4,73.64,30.38z"/>
		<path d="M70,26.52c0-0.06,0-0.13,0-0.19c-0.02-0.3,0.08-0.54,0.29-0.76c0.38-0.42,0.73-0.86,1.1-1.29    c0.07-0.08,0.13-0.16,0.2-0.23c0.19-0.2,0.24-0.21,0.45-0.05c0.26,0.2,0.52,0.41,0.79,0.62c0.25,0.2,0.5,0.4,0.76,0.59    c0.07,0.05,0.14,0.11,0.22,0.15c0.1,0.06,0.15,0.05,0.24-0.04c0.12-0.13,0.24-0.26,0.37-0.39c0.34-0.35,0.69-0.69,1.03-1.04    c0.07-0.07,0.14-0.15,0.21-0.22c0.06-0.07,0.03-0.15-0.06-0.18c-0.17-0.05-0.34-0.1-0.52-0.15c-0.06-0.02-0.12-0.04-0.18-0.07    c-0.01-0.01-0.01-0.04-0.02-0.07c0-0.01,0.01-0.02,0.02-0.03c0.04-0.01,0.07-0.03,0.11-0.03c0.23-0.03,0.46-0.05,0.69-0.08    c0.46-0.05,0.92-0.1,1.37-0.15c0.08-0.01,0.15-0.01,0.23-0.02c0.07,0,0.17-0.02,0.21,0.05c0.06,0.1-0.05,0.16-0.1,0.22    c-1.02,1.12-2.12,2.16-3.17,3.24c-0.04,0.04-0.07,0.07-0.11,0.1c-0.12,0.09-0.18,0.1-0.31,0.01c-0.23-0.17-0.45-0.34-0.67-0.51    c-0.3-0.24-0.6-0.47-0.91-0.71c-0.06-0.05-0.12-0.1-0.19-0.14c-0.09-0.06-0.15-0.06-0.23,0.03c-0.11,0.11-0.21,0.23-0.31,0.35    c-0.35,0.41-0.69,0.82-1.04,1.24c-0.07,0.09-0.15,0.17-0.23,0.26c-0.04,0.04-0.08,0.11-0.16,0.07c-0.07-0.03-0.07-0.11-0.07-0.17    C70.01,26.81,70.01,26.67,70,26.52C70.01,26.52,70.01,26.52,70,26.52z"/>
		<path d="M77.01,26.24c0,0.61,0,1.23,0,1.84c0,0.52-0.01,0.53-0.55,0.53c-0.15,0-0.31,0-0.46-0.01    c-0.16-0.01-0.22-0.08-0.24-0.25c-0.01-0.08-0.01-0.15-0.01-0.23c0-0.87,0.01-1.74,0-2.61c0-0.28,0.07-0.49,0.27-0.68    c0.19-0.17,0.35-0.37,0.52-0.56c0.09-0.09,0.18-0.18,0.28-0.26c0.07-0.06,0.16-0.01,0.17,0.08c0.01,0.11,0.01,0.23,0.01,0.34    C77.01,25.03,77.01,25.64,77.01,26.24z"/>
		<path d="M73.46,27.48c0,0.24,0.01,0.49,0,0.73c-0.01,0.33-0.07,0.39-0.42,0.4c-0.19,0-0.38,0.01-0.57,0    c-0.22-0.01-0.28-0.09-0.31-0.31c-0.01-0.08-0.01-0.15-0.01-0.23c0-0.68,0-1.35,0-2.03c0-0.05,0-0.1,0-0.15    c0.01-0.09-0.01-0.19,0.07-0.24c0.12-0.07,0.18,0.05,0.26,0.11c0.26,0.2,0.52,0.41,0.79,0.61c0.12,0.09,0.18,0.21,0.18,0.36    C73.46,26.97,73.46,27.23,73.46,27.48C73.46,27.48,73.46,27.48,73.46,27.48z"/>
		<path d="M71.69,27.15c0,0.32,0,0.64,0,0.96c0,0.1-0.01,0.2-0.02,0.31c-0.02,0.1-0.08,0.16-0.18,0.18    c-0.29,0.04-0.59,0.03-0.88,0c-0.11-0.01-0.18-0.09-0.2-0.2c-0.01-0.08-0.02-0.15-0.02-0.23c0-0.27,0-0.54,0-0.81    c0-0.17,0.05-0.33,0.16-0.46c0.31-0.36,0.61-0.72,0.92-1.08c0.03-0.04,0.08-0.07,0.13-0.05c0.05,0.02,0.07,0.07,0.08,0.12    c0.01,0.06,0.01,0.13,0.01,0.19C71.69,26.43,71.69,26.79,71.69,27.15z"/>
		<path d="M75.23,27.11c0,0.33,0,0.66,0,1c0,0.1-0.01,0.2-0.02,0.31c-0.01,0.1-0.08,0.17-0.17,0.18    c-0.29,0.04-0.59,0.04-0.88,0c-0.08-0.01-0.14-0.06-0.16-0.14c-0.02-0.06-0.03-0.12-0.04-0.19c-0.04-0.38-0.04-0.77,0.01-1.15    C73.98,27,74,26.89,74.09,26.8c0.32-0.33,0.65-0.66,0.97-0.98c0.02-0.02,0.07-0.03,0.1-0.03c0.04,0,0.06,0.05,0.06,0.09    c0.01,0.24,0.01,0.49,0.01,0.73C75.24,26.77,75.23,26.94,75.23,27.11z"/>
	</g>
</g>
</svg>